<svg width="200" height="200" viewBox="0 0 200 200" fill="none" xmlns="http://www.w3.org/2000/svg">
  <rect width="200" height="200" rx="50" fill="#E6F0FD"/>
  <circle cx="100" cy="100" r="80" fill="#409EFF" fill-opacity="0.2"/>
  <path d="M50 80C50 63.4315 63.4315 50 80 50H120C136.569 50 150 63.4315 150 80V120C150 136.569 136.569 150 120 150H80C63.4315 150 50 136.569 50 120V80Z" fill="white"/>
  <path d="M80 60H120C131.046 60 140 68.9543 140 80V120C140 131.046 131.046 140 120 140H80C68.9543 140 60 131.046 60 120V80C60 68.9543 68.9543 60 80 60Z" stroke="#409EFF" stroke-width="6"/>
  <path d="M60 70L140 130" stroke="#409EFF" stroke-width="6" stroke-linecap="round"/>
  <path d="M140 70L60 130" stroke="#409EFF" stroke-width="6" stroke-linecap="round"/>
  <circle cx="70" cy="70" r="10" fill="#409EFF"/>
  <circle cx="130" cy="70" r="10" fill="#409EFF"/>
  <circle cx="70" cy="130" r="10" fill="#409EFF"/>
  <circle cx="130" cy="130" r="10" fill="#409EFF"/>
</svg> 
